<svg xmlns="http://www.w3.org/2000/svg" width="512" height="512" viewBox="-3.35 -7.7 50 50">
  <defs>
    <style>
      .logo-icon_svg__st0 { fill: #2dccd3; }
      .logo-icon_svg__st1 { fill: #ffca00; }
    </style>
  </defs>
  <path d="M0 9.4v.1c1 .2 2.3.7 3.8 1.9 2.8 2.3 4.7 7.7 7 13.3h7.7s-3-7.2-4.1-9.7c-1.3-3.2-3.7-5.6-8.1-5.6z" class="logo-icon_svg__st0"></path>
  <path d="M15.5 29.3c4.8 0 7.4-4.7 12.3-12.4 2.4-3.8 4-6.5 5.6-8.5 1.9-2.5 5.1-4.7 9.9-6.1v-.1h-9.6c-4.1 0-8 2-10.1 5.3-3 4.7-4.2 6.6-6.6 10.3-1.5 2.3-3.5 3.8-6.5 3.8H5.1c3.7.8 4.8 7.6 10.4 7.6Z" class="logo-icon_svg__st0"></path>
  <path d="M25.5 7.8c-3.4 5.3-4.7 7.4-7.4 11.6-1.6 2.6-3.9 4.3-7.3 4.3H7.9c-.8-1-1.7-1.7-2.8-2h5.4c3 0 5-1.6 6.5-3.8 2.4-3.7 3.6-5.6 6.6-10.3 1.7-2.7 4.5-4.6 8-5.1 0 0-3.4 1.2-6.1 5.3" class="logo-icon_svg__st1"></path>
</svg>
